<svg width="63" height="32" viewBox="0 0 63 32" fill="none" xmlns="http://www.w3.org/2000/svg">
<path d="M25.1886 32C23.2966 32 21.7737 31.6823 20.6201 31.047C19.4664 30.4344 18.6473 29.731 18.1627 28.9369C17.6782 28.1428 17.4128 27.428 17.3667 26.7927C17.3436 26.5658 17.4128 26.373 17.5744 26.2141C17.7589 26.0553 17.9551 25.9759 18.1627 25.9759H19.824C20.0317 25.9759 20.2047 26.0213 20.3432 26.112C20.4816 26.2255 20.597 26.4183 20.6893 26.6906C20.9662 27.4167 21.4161 28.0407 22.0391 28.5625C22.6852 29.1071 23.6773 29.3793 25.0156 29.3793C26.723 29.3793 27.9805 29.0163 28.7881 28.2902C29.5957 27.5869 29.9995 26.3276 29.9995 24.5124V22.1981C29.3996 22.9468 28.6381 23.5481 27.7152 24.0019C26.7922 24.433 25.6963 24.6485 24.4272 24.6485C21.9814 24.6485 20.1471 23.8884 18.9242 22.3682C17.7243 20.8253 17.0898 18.874 17.0206 16.5143L16.986 15.5613L17.0206 14.6424C17.0898 12.3054 17.7359 10.3654 18.9588 8.8225C20.1817 7.25691 22.0045 6.47412 24.4272 6.47412C26.8499 6.47412 28.742 7.34767 30.1033 9.09478V7.63129C30.1033 7.4044 30.1725 7.21153 30.311 7.05271C30.4725 6.89388 30.6686 6.81447 30.8993 6.81447H32.4914C32.7222 6.81447 32.9183 6.89388 33.0798 7.05271C33.2413 7.21153 33.3221 7.4044 33.3221 7.63129V9.27207V13.2684V24.138C33.3221 29.3793 30.6109 32 25.1886 32ZM25.1194 21.9258C26.6884 21.9258 27.8767 21.4153 28.6843 20.3942C29.4919 19.3732 29.9303 18.1593 29.9995 16.7525C30.0225 16.5483 30.0341 16.1513 30.0341 15.5613C30.0341 14.9941 30.0225 14.6084 29.9995 14.4042C29.9303 12.9974 29.4919 11.7835 28.6843 10.7625C27.8998 9.74143 26.7115 9.23092 25.1194 9.23092C23.4812 9.23092 22.2929 9.73009 21.5545 10.7284C20.8162 11.7268 20.4124 13.0428 20.3432 14.6764L20.3086 15.5613L20.3432 16.4803C20.4124 18.0912 20.8162 19.4072 21.5545 20.4283C22.2929 21.4266 23.4812 21.9258 25.1194 21.9258Z" fill="white"/>
<path d="M38.1271 7.02246C35.875 7.02246 34.2733 7.77233 33.3221 9.27207C33.3085 9.2935 32.3816 9.28859 32.3683 9.31032L32.128 13.5646C32.128 13.3526 33.2955 13.462 33.3221 13.2684C33.449 12.3428 33.8669 11.6202 34.4584 11.0385C35.1737 10.3125 36.1543 9.94942 37.4003 9.94942H39.4769C39.7077 9.94942 39.8923 9.88135 40.0307 9.74522C40.1922 9.60908 40.273 9.42756 40.273 9.20066V7.80525C40.273 7.57835 40.1922 7.39684 40.0307 7.2607C39.8923 7.10187 39.7077 7.02246 39.4769 7.02246H38.1271Z" fill="white"/>
<path d="M6.29908 24.7771C5.16848 24.7771 4.11863 24.5502 3.14954 24.0964C2.18045 23.6426 1.40749 23.03 0.830648 22.2586C0.276883 21.4644 0 20.5909 0 19.6379C0 18.1404 0.622986 16.9151 1.86896 15.9622C3.138 14.9865 4.84545 14.3512 6.99129 14.0563L12.1482 13.3415V12.3545C12.1482 10.0402 10.7984 8.88301 8.09882 8.88301C7.08358 8.88301 6.25293 9.09856 5.60688 9.52966C4.96082 9.93808 4.47627 10.4259 4.15324 10.9931C4.08402 11.1974 3.99173 11.3448 3.87636 11.4356C3.78406 11.5264 3.64562 11.5717 3.46103 11.5717H1.97279C1.76513 11.5717 1.58054 11.5037 1.41902 11.3675C1.28058 11.2087 1.21136 11.0272 1.21136 10.823C1.23444 10.2784 1.48824 9.6658 1.97279 8.98511C2.48041 8.28173 3.25337 7.68045 4.29168 7.18128C5.32999 6.65942 6.61058 6.39849 8.13343 6.39849C10.7177 6.39849 12.5751 6.99976 13.7057 8.20232C14.8363 9.38218 15.4016 10.857 15.4016 12.6268V23.654C15.4016 23.8809 15.3208 24.0737 15.1593 24.2326C15.0209 24.3687 14.8363 24.4368 14.6056 24.4368H13.0135C12.7828 24.4368 12.5866 24.3687 12.4251 24.2326C12.2867 24.0737 12.2174 23.8809 12.2174 23.654V22.1905C11.7098 22.9166 10.9715 23.5292 10.0024 24.0284C9.0333 24.5275 7.79886 24.7771 6.29908 24.7771ZM7.0259 22.2245C8.52568 22.2245 9.74858 21.748 10.6946 20.7951C11.6637 19.8194 12.1482 18.424 12.1482 16.6088V15.6559L8.13343 16.2345C6.49521 16.4614 5.26077 16.8471 4.43012 17.3916C3.59948 17.9135 3.18415 18.5828 3.18415 19.3997C3.18415 20.3073 3.56486 21.0106 4.32629 21.5098C5.08772 21.9863 5.98759 22.2245 7.0259 22.2245Z" fill="white"/>
<path d="M42.1785 3.43749C41.9477 3.43749 41.7516 3.36942 41.5901 3.23328C41.4516 3.07445 41.3824 2.88159 41.3824 2.65469V0.81683C41.3824 0.589932 41.4516 0.39707 41.5901 0.238243C41.7516 0.0794142 41.9477 0 42.1785 0H44.3589C44.5896 0 44.7858 0.0794142 44.9473 0.238243C45.1088 0.39707 45.1896 0.589932 45.1896 0.81683V2.65469C45.1896 2.88159 45.1088 3.07445 44.9473 3.23328C44.7858 3.36942 44.5896 3.43749 44.3589 3.43749H42.1785ZM42.4553 24.4368C42.2246 24.4368 42.0285 24.3687 41.867 24.2326C41.7285 24.0737 41.6593 23.8809 41.6593 23.654V7.52163C41.6593 7.29473 41.7285 7.11321 41.867 6.97707C42.0285 6.81825 42.2246 6.73883 42.4553 6.73883H44.1166C44.3474 6.73883 44.532 6.81825 44.6704 6.97707C44.8319 7.11321 44.9127 7.29473 44.9127 7.52163V23.654C44.9127 23.8809 44.8319 24.0737 44.6704 24.2326C44.532 24.3687 44.3474 24.4368 44.1166 24.4368H42.4553Z" fill="white"/>
<path d="M54.7997 24.7771C52.2616 24.7771 50.2888 24.0737 48.8813 22.667C47.4969 21.2602 46.7586 19.3883 46.6663 17.0513L46.6317 15.5878L46.6663 14.1243C46.7586 11.81 47.5085 9.94942 48.9159 8.54266C50.3234 7.11321 52.2847 6.39849 54.7997 6.39849C57.3147 6.39849 59.276 7.11321 60.6835 8.54266C62.0909 9.94942 62.8408 11.81 62.9331 14.1243C62.9562 14.3739 62.9677 14.8617 62.9677 15.5878C62.9677 16.3139 62.9562 16.8017 62.9331 17.0513C62.8408 19.3883 62.0909 21.2602 60.6835 22.667C59.299 24.0737 57.3378 24.7771 54.7997 24.7771ZM54.7997 22.1565C56.2533 22.1565 57.3955 21.7027 58.2261 20.7951C59.0798 19.8875 59.5413 18.5828 59.6105 16.8811C59.6336 16.6542 59.6451 16.2231 59.6451 15.5878C59.6451 14.9525 59.6336 14.5214 59.6105 14.2945C59.5413 12.5928 59.0798 11.2881 58.2261 10.3805C57.3955 9.47294 56.2533 9.01915 54.7997 9.01915C53.3461 9.01915 52.1924 9.47294 51.3387 10.3805C50.4849 11.2881 50.035 12.5928 49.9889 14.2945L49.9543 15.5878L49.9889 16.8811C50.035 18.5828 50.4849 19.8875 51.3387 20.7951C52.1924 21.7027 53.3461 22.1565 54.7997 22.1565Z" fill="white"/>
</svg>
