<svg width="127" height="64" viewBox="0 0 127 64" fill="none" xmlns="http://www.w3.org/2000/svg">
<path d="M50.492 64C46.6993 64 43.6466 63.3647 41.334 62.0941C39.0214 60.8688 37.3795 59.4621 36.4082 57.8738C35.4369 56.2855 34.905 54.8561 34.8125 53.5854C34.7662 53.1316 34.905 52.7459 35.2288 52.4283C35.5988 52.1106 35.9919 51.9518 36.4082 51.9518H39.7383C40.1546 51.9518 40.5015 52.0425 40.779 52.2241C41.0565 52.451 41.2878 52.8367 41.4728 53.3812C42.0278 54.8334 42.9297 56.0813 44.1785 57.125C45.4736 58.2141 47.4625 58.7587 50.1451 58.7587C53.5677 58.7587 56.0885 58.0326 57.7073 56.5805C59.3261 55.1737 60.1356 52.6552 60.1356 49.0248V44.3961C58.933 45.8936 57.4067 47.0962 55.5566 48.0038C53.7065 48.866 51.5095 49.2971 48.9656 49.2971C44.0629 49.2971 40.3859 47.7769 37.9345 44.7365C35.5294 41.6507 34.2575 37.7481 34.1187 33.0286L34.0493 31.1227L34.1187 29.2848C34.2575 24.6107 35.5525 20.7308 38.0039 17.645C40.4552 14.5138 44.1092 12.9482 48.9656 12.9482C53.8221 12.9482 57.6148 14.6953 60.3437 18.1896V15.2626C60.3437 14.8088 60.4824 14.4231 60.76 14.1054C61.0837 13.7878 61.4769 13.6289 61.9394 13.6289H65.1308C65.5933 13.6289 65.9865 13.7878 66.3102 14.1054C66.634 14.4231 66.7959 14.8088 66.7959 15.2626V18.5441V26.5367V48.2761C66.7959 58.7587 61.3612 64 50.492 64ZM50.3532 43.8516C53.4984 43.8516 55.8804 42.8305 57.4992 40.7885C59.118 38.7464 59.9968 36.3186 60.1356 33.5051C60.1818 33.0967 60.2049 32.3025 60.2049 31.1227C60.2049 29.9882 60.1818 29.2167 60.1356 28.8083C59.9968 25.9948 59.118 23.567 57.4992 21.5249C55.9266 19.4829 53.5446 18.4618 50.3532 18.4618C47.0693 18.4618 44.6873 19.4602 43.2073 21.4569C41.7272 23.4536 40.9178 26.0856 40.779 29.3529L40.7096 31.1227L40.779 32.9605C40.9178 36.1825 41.7272 38.8145 43.2073 40.8565C44.6873 42.8532 47.0693 43.8516 50.3532 43.8516Z" fill="#005944"/>
<path d="M76.4279 14.0449C71.9134 14.0449 68.7028 15.5447 66.7959 18.5441C66.7686 18.587 64.9108 18.5772 64.884 18.6206L64.4023 27.1293C64.4023 26.7052 66.7426 26.9241 66.7959 26.5367C67.0503 24.6856 67.8881 23.2404 69.0738 22.0771C70.5076 20.6249 72.4733 19.8988 74.9709 19.8988H79.1336C79.5962 19.8988 79.9662 19.7627 80.2437 19.4904C80.5675 19.2182 80.7293 18.8551 80.7293 18.4013V15.6105C80.7293 15.1567 80.5675 14.7937 80.2437 14.5214C79.9662 14.2037 79.5962 14.0449 79.1336 14.0449H76.4279Z" fill="#005944"/>
<path d="M12.6268 49.5542C10.3605 49.5542 8.25602 49.1004 6.31342 48.1929C4.37083 47.2853 2.82138 46.06 1.66508 44.5171C0.555026 42.9289 0 41.1818 0 39.2758C0 36.2808 1.24881 33.8303 3.74643 31.9244C6.2903 29.9731 9.71296 28.7024 14.0144 28.1125L24.3518 26.6831V24.7091C24.3518 20.0804 21.646 17.766 16.2345 17.766C14.1994 17.766 12.5343 18.1971 11.2393 19.0593C9.94422 19.8762 8.97292 20.8518 8.32539 21.9863C8.18664 22.3947 8.00163 22.6897 7.77037 22.8712C7.58536 23.0527 7.30785 23.1435 6.93783 23.1435H3.95456C3.53829 23.1435 3.16827 23.0073 2.84451 22.7351C2.567 22.4174 2.42824 22.0544 2.42824 21.6459C2.47449 20.5568 2.98327 19.3316 3.95456 17.9702C4.97211 16.5635 6.52156 15.3609 8.60291 14.3626C10.6843 13.3188 13.2513 12.797 16.3039 12.797C21.4841 12.797 25.2074 13.9995 27.4738 16.4046C29.7402 18.7644 30.8733 21.714 30.8733 25.2536V47.308C30.8733 47.7618 30.7115 48.1475 30.3877 48.4651C30.1102 48.7374 29.7402 48.8736 29.2776 48.8736H26.0862C25.6237 48.8736 25.2306 48.7374 24.9068 48.4651C24.6293 48.1475 24.4905 47.7618 24.4905 47.308V44.381C23.473 45.8331 21.9929 47.0584 20.0503 48.0567C18.1077 49.0551 15.6332 49.5542 12.6268 49.5542ZM14.0838 44.4491C17.0902 44.4491 19.5415 43.4961 21.4379 41.5902C23.3805 39.6389 24.3518 36.848 24.3518 33.2177V31.3117L16.3039 32.4689C13.02 32.9227 10.5455 33.6942 8.88042 34.7833C7.21534 35.827 6.3828 37.1657 6.3828 38.7993C6.3828 40.6145 7.14596 42.0213 8.67229 43.0196C10.1986 43.9726 12.0024 44.4491 14.0838 44.4491Z" fill="#005944"/>
<path d="M84.549 6.87497C84.0865 6.87497 83.6933 6.73883 83.3696 6.46656C83.092 6.1489 82.9533 5.76318 82.9533 5.30938V1.63366C82.9533 1.17986 83.092 0.794139 83.3696 0.476485C83.6933 0.158828 84.0865 0 84.549 0H88.9198C89.3823 0 89.7755 0.158828 90.0993 0.476485C90.423 0.794139 90.5849 1.17986 90.5849 1.63366V5.30938C90.5849 5.76318 90.423 6.1489 90.0993 6.46656C89.7755 6.73883 89.3823 6.87497 88.9198 6.87497H84.549ZM85.104 48.8736C84.6415 48.8736 84.2484 48.7374 83.9246 48.4651C83.6471 48.1475 83.5083 47.7618 83.5083 47.308V15.0433C83.5083 14.5895 83.6471 14.2264 83.9246 13.9541C84.2484 13.6365 84.6415 13.4777 85.104 13.4777H88.4342C88.8967 13.4777 89.2667 13.6365 89.5442 13.9541C89.868 14.2264 90.0299 14.5895 90.0299 15.0433V47.308C90.0299 47.7618 89.868 48.1475 89.5442 48.4651C89.2667 48.7374 88.8967 48.8736 88.4342 48.8736H85.104Z" fill="#005944"/>
<path d="M109.849 49.5542C104.761 49.5542 100.807 48.1475 97.9853 45.334C95.2101 42.5204 93.7301 38.7766 93.5451 34.1026L93.4757 31.1756L93.5451 28.2486C93.7301 23.6199 95.2333 19.8988 98.0546 17.0853C100.876 14.2264 104.807 12.797 109.849 12.797C114.89 12.797 118.822 14.2264 121.643 17.0853C124.465 19.8988 125.968 23.6199 126.153 28.2486C126.199 28.7478 126.222 29.7235 126.222 31.1756C126.222 32.6277 126.199 33.6034 126.153 34.1026C125.968 38.7766 124.465 42.5204 121.643 45.334C118.868 48.1475 114.937 49.5542 109.849 49.5542ZM109.849 44.3129C112.763 44.3129 115.052 43.4053 116.717 41.5902C118.429 39.775 119.354 37.1657 119.493 33.7622C119.539 33.3084 119.562 32.4462 119.562 31.1756C119.562 29.905 119.539 29.0428 119.493 28.589C119.354 25.1855 118.429 22.5762 116.717 20.761C115.052 18.9459 112.763 18.0383 109.849 18.0383C106.935 18.0383 104.622 18.9459 102.911 20.761C101.2 22.5762 100.298 25.1855 100.205 28.589L100.136 31.1756L100.205 33.7622C100.298 37.1657 101.2 39.775 102.911 41.5902C104.622 43.4053 106.935 44.3129 109.849 44.3129Z" fill="#005944"/>
</svg>
