<svg width="93" height="80" viewBox="0 0 93 80" fill="none" xmlns="http://www.w3.org/2000/svg">
<path d="M28.8014 25.7765C28.8014 14.2658 40.3509 3.97724 44.6341 0.55747C45.565 -0.185823 46.8501 -0.185823 47.781 0.55747C52.0641 3.97724 63.6137 14.2658 63.6137 25.7765C63.6137 37.2872 52.0642 47.5758 47.781 50.9956C46.8501 51.7389 45.565 51.7389 44.6341 50.9956C40.3509 47.5758 28.8014 37.2872 28.8014 25.7765Z" fill="#74D0BB"/>
<path d="M43.4879 50.0556C38.5924 45.9369 28.8014 36.3747 28.8014 25.7765C28.8014 14.2658 40.3509 3.97724 44.6341 0.55747C44.6351 0.556692 44.6361 0.55592 44.637 0.555143C45.1027 0.184425 45.6566 -0.00061899 46.2104 3.92807e-06C46.2191 2.18883 46.2456 10.0963 46.2456 25.7765C46.2456 41.4567 46.2191 49.3642 46.2104 51.5531C45.6554 51.5537 45.1003 51.3679 44.6341 50.9956C44.2945 50.7245 43.9094 50.4102 43.4879 50.0556Z" fill="#74D0BB"/>
<path d="M60.9165 47.3433C70.2346 40.741 85.1879 44.4132 90.4129 46.002C91.5486 46.3474 92.2857 47.4125 92.2179 48.6105C91.9063 54.1223 90.2021 69.5971 80.884 76.1994C71.5659 82.8016 56.6127 79.1295 51.3876 77.5407C50.2519 77.1953 49.5149 76.1302 49.5826 74.9322C49.8942 69.4203 51.5985 53.9456 60.9165 47.3433Z" fill="#74D0BB"/>
<path d="M85.6718 71.2357C84.3552 73.1511 82.7767 74.8583 80.884 76.1994C71.5659 82.8016 56.6127 79.1295 51.3876 77.5407C50.8814 77.3867 50.4543 77.0898 50.1425 76.7018C53.1914 75.6063 66.5914 70.6375 74.3774 65.2208C82.0994 59.8487 90.0196 49.6356 91.8797 47.1653C92.1234 47.5891 92.2475 48.0871 92.2179 48.6105C91.9696 53.0028 90.8369 63.7215 85.6718 71.2357Z" fill="#74D0BB"/>
<path d="M31.2086 47.3433C21.9198 40.7413 7.01382 44.4129 1.80434 46.0018C0.671557 46.3473 -0.0632786 47.4126 0.00429914 48.6113C0.315076 54.1237 2.01428 69.5974 11.303 76.1994C20.5918 82.8014 35.4978 79.1298 40.7073 77.5409C41.84 77.1954 42.5749 76.1301 42.5073 74.9314C42.1965 69.419 40.4973 53.9453 31.2086 47.3433Z" fill="#74D0BB"/>
<path d="M0.341571 47.1654C0.098531 47.5892 -0.0252238 48.0876 0.00429914 48.6113C0.315076 54.1237 2.01428 69.5974 11.303 76.1994C20.5918 82.8014 35.4978 79.1298 40.7073 77.5409C41.2122 77.3869 41.6382 77.0897 41.9491 76.7016C38.9095 75.6061 25.5513 70.6373 17.7895 65.2207C10.0915 59.8487 2.19605 49.6359 0.341571 47.1654Z" fill="#74D0BB"/>
</svg>
