<svg width="9" height="12" viewBox="0 0 9 12" fill="none" xmlns="http://www.w3.org/2000/svg">
<path d="M4.44304 0C1.99313 0 0 1.94958 0 4.34593C0 7.31987 3.97608 11.6858 4.14537 11.8702C4.30437 12.0434 4.58199 12.0431 4.74071 11.8702C4.90999 11.6858 8.88608 7.31987 8.88608 4.34593C8.88603 1.94958 6.89292 0 4.44304 0ZM4.44304 6.53248C3.21043 6.53248 2.20766 5.5516 2.20766 4.34593C2.20766 3.14025 3.21045 2.15939 4.44304 2.15939C5.67562 2.15939 6.67839 3.14028 6.67839 4.34595C6.67839 5.55162 5.67562 6.53248 4.44304 6.53248Z" fill="#003025"/>
</svg>
