<svg width="32" height="32" viewBox="0 0 32 32" fill="none" xmlns="http://www.w3.org/2000/svg">
<rect x="0.5" y="0.5" width="31" height="31" rx="15.5" fill="white" stroke="#003025"/>
<path d="M25.2904 12.964C25.2904 10.5887 23.346 8.65632 20.9561 8.65632C20.8522 8.65632 20.7474 8.6602 20.642 8.66802C19.6136 7.13183 17.8712 6.1936 16 6.1936C14.1289 6.1936 12.3866 7.13202 11.3581 8.66802C11.2528 8.6602 11.1479 8.65632 11.0441 8.65632C8.65408 8.65632 6.70972 10.5887 6.70972 12.964C6.70972 15.1309 8.32833 16.9283 10.427 17.227V23.1801C10.427 24.0592 11.1467 24.7742 12.0315 24.7742H19.9686C20.8534 24.7742 21.5731 24.0591 21.5731 23.1801V17.227C23.6718 16.9283 25.2904 15.1308 25.2904 12.964ZM19.9686 23.548H12.0315C11.8309 23.548 11.6613 23.3795 11.6613 23.1801V17.2276C12.2659 17.1425 12.84 16.9322 13.3578 16.6051C14.152 17.0319 15.0553 17.2714 16 17.2714C16.9447 17.2714 17.848 17.0319 18.6422 16.6051C19.1602 16.9322 19.7343 17.1425 20.3389 17.2276V23.1801C20.3389 23.3795 20.1693 23.548 19.9686 23.548ZM20.9561 16.0452C20.5406 16.0452 20.1391 15.9645 19.7659 15.8096C20.517 15.1255 21.0847 14.2364 21.3698 13.2146C21.4608 12.8883 21.2683 12.5504 20.9399 12.4599C20.6114 12.3695 20.2714 12.5608 20.1803 12.887C19.6616 14.7465 17.9426 16.0452 16 16.0452C14.0574 16.0452 12.3385 14.7465 11.8198 12.887C11.7288 12.5607 11.3889 12.3695 11.0602 12.4599C10.7317 12.5503 10.5393 12.8883 10.6303 13.2146C10.9153 14.2364 11.4831 15.1256 12.2342 15.8096C11.861 15.9645 11.4594 16.0452 11.0441 16.0452C9.33467 16.0452 7.94401 14.6629 7.94401 12.964C7.94401 11.2649 9.33473 9.88258 11.0441 9.88258C11.2169 9.88258 11.3948 9.89797 11.5729 9.92825C11.8299 9.97179 12.0873 9.85024 12.2152 9.62414C12.9837 8.2645 14.434 7.41986 16 7.41986C17.5659 7.41986 19.0162 8.26456 19.7849 9.6242C19.9127 9.8503 20.17 9.97186 20.4272 9.92825C20.6053 9.89797 20.7832 9.88258 20.9559 9.88258C22.6653 9.88258 24.0559 11.2649 24.0559 12.964C24.0561 14.6629 22.6654 16.0452 20.9561 16.0452Z" fill="#003025"/>
</svg>
